<!--?xml version="1.0" encoding="utf-8"?-->
<!-- Generator: Adobe Illustrator 18.1.1, SVG Export Plug-In . SVG Version: 6.00 Build 0)  -->

<svg version="1.1" id="_x32_" xmlns="http://www.w3.org/2000/svg" xmlns:xlink="http://www.w3.org/1999/xlink" x="0px" y="0px" viewBox="0 0 512 512" style="width: 256px; height: 256px; opacity: 1;" xml:space="preserve">
<style type="text/css">
	.st0{fill:#4B4B4B;}
</style>
<g>
	<path class="st0" d="M439.534,403.67c-9.226-13.825-22.035-23.038-35.267-29.6c29.322-36.378-22.071-127.614-25.768-255.802
		c0-48.241-31.499-123.954-135.652-117.929c-79.546,4.606-116.56,77.024-116.56,113.43l-0.508,0.265
		c-2.45,128.424-39.709,217.225-16.442,259.032c-7.886,3.79-15.638,8.446-22.666,14.478c-7.93,6.798-14.886,15.352-19.779,25.976
		c-4.9,10.624-7.708,23.239-7.701,38.004c0,3.424,0.15,6.963,0.458,10.631c0.23,2.578,1.204,4.656,2.35,6.375
		c2.185,3.217,5.079,5.602,8.711,8.045c6.362,4.205,15.166,8.317,26.442,12.358C130.9,500.968,186.77,511.979,256,512
		c56.257-0.007,103.73-7.307,137.622-16.476c16.949-4.592,30.488-9.628,40.274-14.657c4.893-2.522,8.854-5.029,11.999-7.766
		c1.576-1.39,2.952-2.837,4.112-4.571c1.139-1.72,2.12-3.797,2.35-6.375c0.301-3.668,0.451-7.193,0.451-10.602
		C452.837,431.867,447.78,416.006,439.534,403.67z M149.569,184.561c4.012,2.694,8.467,4.355,13.382,4.664
		c109.999-9.263,152.845-59.051,149.37-90.313c17.372,41.678,13.898,73.815,37.345,88.572c2.335-2.794,4.498-5.759,6.562-8.782
		c0.967,0.164,2.178,0.501,3.116,1.117c0.874,0.559,1.59,1.21,2.242,2.407c0.645,1.204,1.26,3.11,1.275,6.376
		c0,2.808-0.494,6.576-1.891,11.447c-4.212,14.85-7.988,23.483-11.454,28.268c-1.741,2.421-3.324,3.94-5.086,5.172
		c-1.777,1.225-3.804,2.192-6.462,3.145l-4.176,1.497l-0.774,4.37c-4.893,27.394-19.005,42.796-29.428,54.401l-1.963,2.178v2.937
		c0,13.897,0,24.027,0,32.137c-0.007,4.541,1.626,8.624,3.897,12.049l-25.431,47.954l0.107,0.087l-21.656,40.991l-27.28-43.699
		l-24.421-46.041c2.056-3.26,3.532-7.064,3.532-11.34c0-8.11,0-18.246,0-32.137v-2.937l-1.956-2.178
		c-10.423-11.605-24.536-27.007-29.428-54.401l-0.774-4.37l-4.176-1.497c-2.658-0.953-4.685-1.92-6.462-3.145
		c-2.608-1.848-4.979-4.363-7.744-9.528c-2.736-5.129-5.63-12.788-8.804-23.913c-1.39-4.857-1.884-8.639-1.884-11.447
		C149.154,186.924,149.318,185.621,149.569,184.561z M334.114,427.146l-45.153-34.909l21.412-40.367
		c3.439,3.274,7.45,6.017,11.749,8.475c2.213,1.26,4.556,2.35,6.885,3.46L334.114,427.146z M223.771,392.237l-45.146,34.909
		l5.122-63.563c3.969-1.927,7.908-4.119,11.519-6.634c2.45-1.705,4.685-3.639,6.77-5.696L223.771,392.237z M268.164,496.57
		c-4.018,0.072-8.045,0.143-12.164,0.143c-54.903,0.008-101.216-7.163-133.617-15.946c-16.19-4.37-28.92-9.177-37.273-13.482
		c-4.162-2.134-7.228-4.184-8.926-5.673c-0.723-0.638-1.132-1.118-1.332-1.398c-0.236-3.016-0.373-5.924-0.373-8.689
		c0.028-17.15,4.22-29.687,10.695-39.508c9.7-14.679,25.26-23.662,41.521-29.78c8.095-3.066,16.283-5.386,23.805-7.399
		c7.528-2.02,14.342-3.704,20.015-5.696c1.934-0.688,3.954-1.447,6.01-2.292l-6.088,75.413l56.865-43.964l40.862,65.484V496.57z
		 M437.149,460.199l-0.659,0.781c-1.125,1.139-3.396,2.851-6.59,4.67c-11.269,6.505-33.512,14.5-63.363,20.574
		c-25.367,5.187-56.386,9.091-91.431,10.158v-34.601l-12.307-19.729l22.974-43.498l56.529,43.706l-6.068-75.255
		c1.712,0.702,3.446,1.462,5.122,2.092c7.565,2.808,17.221,5.015,27.766,8.095c15.789,4.556,33.232,10.968,46.213,22.122
		c6.519,5.573,11.971,12.264,15.882,20.703c3.904,8.425,6.304,18.676,6.304,31.535C437.521,454.296,437.386,457.198,437.149,460.199
		z" style="fill: rgb(75, 75, 75);"></path>
	<path class="st0" d="M253.7,484.491c2.644,0,4.778-2.142,4.778-4.785c0-2.636-2.135-4.771-4.778-4.771
		c-2.636,0-4.771,2.135-4.771,4.771C248.929,482.349,251.064,484.491,253.7,484.491z" style="fill: rgb(75, 75, 75);"></path>
</g>
</svg>
