<!--?xml version="1.0" encoding="utf-8"?-->
<!-- Generator: Adobe Illustrator 18.1.1, SVG Export Plug-In . SVG Version: 6.00 Build 0)  -->

<svg version="1.1" id="_x32_" xmlns="http://www.w3.org/2000/svg" xmlns:xlink="http://www.w3.org/1999/xlink" x="0px" y="0px" viewBox="0 0 512 512" style="width: 256px; height: 256px; opacity: 1;" xml:space="preserve">
<style type="text/css">
	.st0{fill:#4B4B4B;}
</style>
<g>
	<path class="st0" d="M427.054,407.823c-6.274-10.704-14.63-18.801-23.656-25.133c2.111-3.954,3.602-8.377,4.423-13.326
		c4.776-28.137-9.198-65.206-20.508-121.825c-6.102-30.773-11.483-57.232-12.592-95.006c-0.042,1.412-0.144,2.773-0.28,0.216
		c-1.614-26.142-9.055-52.492-24.521-73.591l1.254-5.395c2.867-12.434,4.228-23.095,4.228-32.243
		c-0.008-12.966-2.709-23.124-8.406-30.456c-2.838-3.645-6.426-6.448-10.417-8.27c-3.99-1.83-8.334-2.687-12.771-2.788h-0.188h-0.18
		c-3.285,0.151-6.102,1.117-9.192,2.413c-5.331,2.284-11.28,5.85-17.482,9.955c-11.59,7.686-23.93,17.339-31.552,23.491
		c-5.806-0.411-11.907-0.504-18.26-0.303c-4.344-3.825-10.236-8.86-16.755-13.931c-6.656-5.165-13.917-10.374-20.962-14.414
		c-3.53-2.017-7.009-3.753-10.424-5.05c-3.436-1.268-6.8-2.147-10.358-2.168l-0.476,0.007H188
		c-8.594,0.13-17.159,3.89-22.806,11.389c-5.691,7.463-8.579,17.9-8.587,31.328c0.008,8.882,1.275,19.147,4.013,31.04l0.331,1.433
		c-21.582,25.4-32.149,58.974-33.662,88.66c0,0-1.491,5.187-2.579,18.881c-1.57,19.42-3.688,37.746-6.137,54.919
		c-8.169,59.688-18.938,98.868-14.176,129.864c0.749,5.316,2.053,10.221,3.954,14.659c0.598-0.296,1.21-0.512,1.808-0.792
		c-4.603,3.119-9.069,6.634-13.196,10.755c-13.572,13.463-23.202,33.193-23.123,60.271c0,3.443,0.151,7.009,0.461,10.704
		c0.202,2.305,1.016,4.214,1.988,5.842c1.873,3.033,4.409,5.381,7.592,7.78c5.561,4.135,13.291,8.183,23.332,12.195
		C137.259,500.87,188.079,511.979,256,512c55.193,0,99.134-7.369,129.749-16.51c15.314-4.582,27.286-9.573,35.887-14.522
		c4.308-2.5,7.773-4.964,10.518-7.628c1.368-1.347,2.571-2.752,3.558-4.38c0.98-1.628,1.794-3.537,1.995-5.842v-0.006
		c0.303-3.682,0.454-7.232,0.454-10.676C438.176,434.397,433.983,419.623,427.054,407.823z M296.685,28.972
		c5.95-4.236,11.98-8.226,17.065-11.079c2.536-1.418,4.834-2.55,6.663-3.277c1.585-0.656,2.795-0.922,3.25-0.958
		c2.823,0.086,5.23,0.612,7.239,1.528c3.069,1.447,5.504,3.681,7.528,7.808c1.989,4.114,3.35,10.207,3.342,18.528
		c0.007,6.122-0.764,13.492-2.392,22.013l-5.416-1.642c-12.952-11.079-29.426-19.363-49.942-23.505
		C287.984,35.333,292.313,32.091,296.685,28.972z M176.006,19.687c3.256-4.134,7.059-5.842,12.31-6.051h0.022l0.115-0.008
		c1.088-0.014,3.112,0.368,5.568,1.304c4.322,1.613,9.919,4.761,15.61,8.586c6.26,4.185,12.685,9.156,18.311,13.766
		c-22.604,3.724-40.988,13.212-55.56,26.092c-1.477-7.924-2.147-14.818-2.147-20.652C170.229,31.198,172.793,23.843,176.006,19.687z
		 M166.684,206.789c61.323-27.258,117.539-37.825,143.09-73.598c17.036,40.887,13.628,64.197,36.651,78.705
		c3.89-4.624,7.362-9.674,10.502-14.99l3.098,11.526c-0.267,1.376-0.606,2.824-1.059,4.43c-4.142,14.565-7.845,23.03-11.244,27.726
		c-1.7,2.376-3.263,3.861-4.992,5.071c-1.736,1.203-3.731,2.154-6.338,3.082l-4.106,1.47l-0.749,4.286
		c-4.798,26.869-18.636,41.974-28.85,53.356L300.763,310v2.874c0,13.622,0,16.741,0,24.693c0,0.504,0.094,0.98,0.136,1.484
		l-44.892,49.438l-44.892-49.452c0.036-0.496,0.144-0.965,0.144-1.469c0-7.952,0-11.071,0-24.693V310l-1.924-2.146
		c-10.222-11.382-24.066-26.494-28.864-53.356l-0.764-4.286l-4.098-1.47c-2.607-0.929-4.596-1.88-6.332-3.082
		c-2.565-1.816-4.884-4.279-7.6-9.336c-2.672-5.035-5.517-12.555-8.622-23.461c-0.49-1.722-0.836-3.256-1.117-4.711
		C156.593,208.396,162.254,206.502,166.684,206.789z M320.853,363.263c2.493,1.412,5.108,2.666,7.722,3.876
		c-0.375,7.232-3.89,15.927-10.251,22.741c-6.757,7.268-16.28,12.426-28.216,12.441c-7.765-0.007-16.69-2.219-26.667-7.823
		l41.067-45.224c0.266,0.403,0.504,0.836,0.792,1.218C309.284,355.844,314.817,359.806,320.853,363.263z M315.746,315.749v-0.008
		c0,0,0.007,0,0.007-0.006L315.746,315.749z M248.574,394.497c-9.977,5.604-18.909,7.816-26.668,7.823
		c-11.936-0.015-21.459-5.172-28.23-12.441c-6.317-6.778-9.825-15.415-10.222-22.626c4.458-2.082,8.911-4.502,12.98-7.325
		c3.789-2.644,7.261-5.612,10.012-9.22c0.361-0.476,0.671-1.002,1.009-1.506L248.574,394.497z M422.782,461.338
		c-0.317,0.504-1.484,1.83-3.559,3.343c-3.904,2.939-10.69,6.641-19.888,10.294c-27.661,11.05-77.034,22.057-143.335,22.042
		c-53.831,0-96.468-7.232-125.448-15.884c-14.472-4.322-25.551-9.026-32.69-13.161c-3.566-2.038-6.122-3.962-7.52-5.345
		c-0.627-0.598-0.972-1.051-1.138-1.296c-0.238-3.098-0.374-6.087-0.374-8.918c0.022-15.783,3.544-27.676,9.04-37.141
		c8.227-14.141,21.301-23.195,35.29-29.642c13.974-6.454,28.425-10.042,39-13.744c0.656-0.231,1.369-0.526,2.046-0.778
		c1.304,8.795,5.619,17.821,12.483,25.262c8.241,8.932,20.415,15.495,35.218,15.48c10.381,0.007,21.906-3.263,34.102-10.675
		c12.195,7.412,23.721,10.682,34.101,10.675c14.804,0.015,26.977-6.555,35.218-15.488c6.864-7.455,11.187-16.481,12.483-25.298
		c0.634,0.245,1.283,0.548,1.909,0.778c7.095,2.644,15.819,5.093,25.068,8.392c13.859,4.92,28.634,11.72,39.619,22.684
		c10.956,11.007,18.678,25.867,18.765,49.516C423.171,455.266,423.034,458.248,422.782,461.338z" style="fill: rgb(75, 75, 75);"></path>
	<path class="st0" d="M374.706,152.201c0.008,0.116,0.014,0.216,0.014,0.332C374.778,151.078,374.778,149.58,374.706,152.201z" style="fill: rgb(75, 75, 75);"></path>
	<path class="st0" d="M256.008,432.632c-3.061,0-5.532,2.478-5.532,5.54s2.471,5.532,5.532,5.532c3.061,0,5.54-2.471,5.54-5.532
		S259.069,432.632,256.008,432.632z" style="fill: rgb(75, 75, 75);"></path>
	<path class="st0" d="M256.008,466.705c-3.061,0-5.532,2.478-5.532,5.539c0,3.055,2.471,5.532,5.532,5.532
		c3.061,0,5.54-2.478,5.54-5.532C261.547,469.182,259.069,466.705,256.008,466.705z" style="fill: rgb(75, 75, 75);"></path>
</g>
</svg>
