<?xml version="1.0" encoding="UTF-8" standalone="no"?>
<svg
   xmlns:dc="http://purl.org/dc/elements/1.1/"
   xmlns:cc="http://creativecommons.org/ns#"
   xmlns:rdf="http://www.w3.org/1999/02/22-rdf-syntax-ns#"
   xmlns:svg="http://www.w3.org/2000/svg"
   xmlns="http://www.w3.org/2000/svg"
   xmlns:sodipodi="http://sodipodi.sourceforge.net/DTD/sodipodi-0.dtd"
   xmlns:inkscape="http://www.inkscape.org/namespaces/inkscape"
   version="1.1"
   id="_x32_"
   x="0px"
   y="0px"
   viewBox="0 0 512 512"
   style="width: 256px; height: 256px; opacity: 1;"
   xml:space="preserve"
   sodipodi:docname="レディーアイコン1R.svg"
   inkscape:version="1.0.2 (e86c870879, 2021-01-15, custom)"><metadata
   id="metadata38"><rdf:RDF><cc:Work
       rdf:about=""><dc:format>image/svg+xml</dc:format><dc:type
         rdf:resource="http://purl.org/dc/dcmitype/StillImage" /></cc:Work></rdf:RDF></metadata><defs
   id="defs36" /><sodipodi:namedview
   pagecolor="#ffffff"
   bordercolor="#666666"
   borderopacity="1"
   objecttolerance="10"
   gridtolerance="10"
   guidetolerance="10"
   inkscape:pageopacity="0"
   inkscape:pageshadow="2"
   inkscape:window-width="1370"
   inkscape:window-height="982"
   id="namedview34"
   showgrid="false"
   inkscape:zoom="1.59375"
   inkscape:cx="256"
   inkscape:cy="256"
   inkscape:window-x="0"
   inkscape:window-y="0"
   inkscape:window-maximized="0"
   inkscape:current-layer="_x32_" />
<style
   type="text/css"
   id="style25">
	.st0{fill:#4B4B4B;}
</style>
<g
   id="g31"
   transform="matrix(-1,0,0,1,511.9994,0)">
	<path
   class="st0"
   d="m 96.785,374.168 c -0.016,0 -0.024,0.008 -0.049,0.008 l -8.149,2.749 z"
   style="fill:#4b4b4b"
   id="path27" />
	<path
   class="st0"
   d="M 455.049,244.286 C 524.259,141.058 503.491,53.963 439.482,17.635 379.405,-16.474 344.56,14.497 306.254,24.913 257.811,-7.448 190.05,-11.324 105.563,31.471 64.035,29.749 13.862,71.269 22.515,111.049 c 2.84,13.1 10.575,26.564 19.65,38.754 -0.024,0.778 -0.083,1.573 -0.083,2.335 0,3.37 0.232,6.641 0.712,9.812 1.408,9.249 2.137,17.05 2.137,23.848 0,0.952 -0.033,1.863 -0.058,2.79 -9.034,3.147 -21.364,6.484 -31.011,5.515 0,0 11.254,8.976 28.295,11.56 -0.645,2.054 -1.416,4.074 -2.318,6.12 -3.536,7.941 -9.283,16.172 -18.069,26.224 -2.376,2.708 -4.214,5.466 -5.481,8.347 -1.268,2.874 -1.946,5.896 -1.93,8.811 -0.016,3.469 0.944,6.674 2.311,9.291 2.078,3.942 4.91,6.674 7.486,8.744 2.542,2.029 4.952,3.453 6.483,4.389 0.166,0.099 0.945,1.143 1.458,2.567 0.555,1.424 0.886,3.205 0.878,4.604 0.008,0.895 -0.132,1.623 -0.264,2.021 l -0.166,0.389 -0.016,0.042 0.016,-0.033 v 0.016 l -0.016,0.017 h -0.008 c -1.333,1.349 -2.518,2.832 -3.42,4.62 -0.919,1.78 -1.515,3.925 -1.507,6.094 -0.008,2.518 0.795,4.837 1.772,6.526 1.499,2.584 3.221,4.124 4.729,5.415 0.397,0.323 0.753,0.597 1.134,0.886 -0.124,0.34 -0.248,0.688 -0.388,1.068 -0.323,0.886 -0.696,1.904 -1.011,3.114 -0.323,1.2 -0.629,2.6 -0.638,4.414 0,1.515 0.257,3.404 1.192,5.324 0.903,1.93 2.509,3.677 4.224,4.745 l 0.372,0.24 -0.339,-0.216 c 2.178,1.433 2.89,2.518 3.511,3.892 0.579,1.374 0.894,3.329 0.878,5.862 0.025,3.114 -0.464,6.856 -0.497,11.096 0,1.292 0.058,2.634 0.24,4.057 0.298,2.452 0.952,5.143 2.153,7.9 1.781,4.115 4.944,8.429 9.78,11.543 4.828,3.122 11.088,4.869 18.416,4.86 6.749,-0.008 14.483,-1.408 23.617,-4.48 l 0.058,-0.016 c 7.254,-2.443 13.539,-3.47 19.029,-3.47 7.734,0.024 13.904,1.962 19.501,5.366 4.182,2.575 8.033,6.054 11.577,10.335 5.333,6.409 9.945,14.631 13.911,23.708 3.983,9.083 7.312,18.996 10.293,28.766 1.896,6.211 2.666,11.958 2.666,17.282 0,13.059 -4.645,23.824 -9.432,31.45 -2.377,3.793 -4.77,6.766 -6.516,8.719 -0.87,0.994 -1.582,1.722 -2.062,2.186 l -0.505,0.497 -0.075,0.066 -0.024,0.017 3.511,3.908 8.007,9.009 c 0.414,-0.381 6.335,-5.68 12.322,-15.203 5.97,-9.506 12.065,-23.418 12.074,-40.65 0,-6.997 -1.019,-14.508 -3.42,-22.349 -5.507,-17.92 -12.247,-37.205 -23.128,-52.798 -5.449,-7.784 -12.024,-14.69 -20.139,-19.683 -8.115,-5.001 -17.787,-7.958 -28.56,-7.924 -7.651,0 -15.824,1.44 -24.561,4.38 l 0.008,-0.008 c -7.85,2.65 -13.845,3.593 -18.151,3.577 -3.147,0 -5.39,-0.464 -7.006,-1.077 -2.41,-0.944 -3.585,-2.095 -4.538,-3.478 -0.919,-1.358 -1.466,-3.096 -1.648,-4.587 -0.049,-0.48 -0.091,-1.126 -0.091,-1.904 -0.033,-2.608 0.472,-6.525 0.497,-11.096 -0.009,-3.734 -0.373,-8.065 -2.228,-12.528 -1.366,-3.37 -3.694,-6.65 -6.856,-9.366 0.116,-0.298 0.215,-0.596 0.348,-0.919 0.323,-0.902 0.679,-1.929 1.011,-3.147 0.314,-1.218 0.612,-2.642 0.62,-4.431 0,-1.449 -0.224,-3.213 -1.018,-5.026 -0.77,-1.814 -2.145,-3.553 -3.743,-4.712 -0.77,-0.572 -1.458,-1.076 -2.07,-1.54 1.259,-1.706 2.161,-3.528 2.75,-5.341 0.819,-2.517 1.126,-5.01 1.134,-7.428 -0.016,-4.29 -0.944,-8.363 -2.558,-12.106 -0.82,-1.871 -1.83,-3.652 -3.105,-5.316 -1.292,-1.672 -2.865,-3.246 -4.96,-4.521 -1.018,-0.613 -2.103,-1.267 -3.163,-1.995 -1.598,-1.086 -3.064,-2.361 -3.868,-3.412 -0.414,-0.53 -0.654,-0.985 -0.794,-1.324 -0.133,-0.356 -0.174,-0.588 -0.174,-0.919 0,-0.356 0.049,-0.894 0.463,-1.838 0.406,-0.928 1.218,-2.269 2.667,-3.925 9.374,-10.731 16.288,-20.329 20.859,-30.588 4.588,-10.252 6.607,-21 6.591,-33.016 -0.008,-4.264 -0.257,-8.703 -0.704,-13.373 12.587,13.067 23.261,21.678 23.261,21.678 0,0 -6.915,-58.826 8.653,-70.932 0,0 60.557,115.913 115.921,105.545 l 38.058,32.858 c 0,0 8.654,-55.365 34.614,-60.548 25.952,-5.183 24.213,43.259 -6.923,83.047 v 51.622 c -2.584,4.364 -4.869,8.662 -6.765,12.927 -1.002,2.277 -1.656,4.753 -2.145,7.61 -0.472,2.849 -0.729,6.062 -0.729,9.664 0.017,14.474 4.198,35.358 17.555,60.631 8.546,16.106 20.437,28.08 30.183,36.153 9.746,8.057 17.406,12.206 17.762,12.404 l 6.765,-12.52 1.474,-2.7 -0.016,-0.009 c -0.132,-0.074 -6.923,-3.8 -15.369,-10.856 -8.479,-7.071 -18.582,-17.455 -25.504,-30.563 -12.214,-23.062 -15.56,-41.396 -15.551,-52.541 0,-2.758 0.207,-5.068 0.497,-6.832 0.282,-1.764 0.696,-2.989 0.903,-3.437 4,-9.075 10.964,-19.774 19.418,-31.433 12.67,-17.522 28.651,-37.28 42.878,-58.71 14.21,-21.447 26.764,-44.633 32.245,-69.526 2.22,-10.052 3.329,-20.685 3.329,-31.566 -0.016,-30.647 -8.844,-63.48 -28.104,-90.972 28.544,6.194 65.078,25.819 45.742,87.237 -19.608,62.279 -69.193,149.955 -25.952,211.646 36.145,51.573 93.423,34.614 93.423,34.614 -25.958,-31.149 -68.247,-78.912 -12.113,-162.629 z"
   style="fill:#4b4b4b"
   id="path29" />
</g>
</svg>
